<svg width="397" height="55" viewBox="0 0 397 55" fill="none" xmlns="http://www.w3.org/2000/svg">
<g clip-path="url(#clip0)">
<path d="M247.393 41.8092C248.655 43.0646 250.584 43.6554 252.959 43.6554C254.74 43.6554 256.224 43.2123 257.485 42.3261C258.747 41.44 259.489 40.5538 259.786 39.52H267.43C266.242 43.2861 264.313 46.0184 261.864 47.5692C259.341 49.1938 256.298 50.0061 252.736 50.0061C250.287 50.0061 248.061 49.6369 246.057 48.8246C244.053 48.0123 242.347 46.9046 241.011 45.5015C239.601 44.0246 238.562 42.3261 237.82 40.3323C237.078 38.3384 236.707 36.1231 236.707 33.6861C236.707 31.3231 237.078 29.1815 237.894 27.1877C238.636 25.1938 239.749 23.4215 241.159 21.9446C242.569 20.4677 244.276 19.2861 246.28 18.4738C248.283 17.6615 250.436 17.2184 252.81 17.2184C255.482 17.2184 257.857 17.7354 259.786 18.7692C261.79 19.8031 263.422 21.2061 264.684 22.9046C265.945 24.6769 266.91 26.5969 267.43 28.8123C268.023 31.0277 268.172 33.3908 268.023 35.7538H245.315C245.389 38.56 246.131 40.5538 247.393 41.8092ZM257.189 25.4154C256.15 24.3077 254.591 23.7169 252.439 23.7169C251.029 23.7169 249.916 23.9384 249.026 24.3815C248.135 24.8246 247.393 25.4154 246.799 26.08C246.28 26.7446 245.835 27.4831 245.612 28.2215C245.389 28.96 245.241 29.6984 245.241 30.2892H259.267C258.97 28.1477 258.228 26.5231 257.189 25.4154Z" fill="white"/>
<path d="M273.441 30.9539H288.654V34.4246H273.441V30.9539Z" fill="white"/>
<path d="M292.29 23.7908V18.0308H297.485V15.5939C297.485 12.7878 298.375 10.5724 300.082 8.80006C301.863 7.02776 304.46 6.1416 308.023 6.1416C308.765 6.1416 309.581 6.1416 310.323 6.21545C311.065 6.28929 311.881 6.28929 312.549 6.36314V12.8616C311.51 12.7139 310.471 12.6401 309.358 12.6401C308.171 12.6401 307.355 12.9354 306.835 13.4524C306.316 13.9693 306.093 14.8554 306.093 16.1847V18.0308H312.03V23.7908H306.093V49.3416H297.485V23.7908H292.29Z" fill="white"/>
<path d="M324.72 6.1416V49.3416H316.037V6.1416H324.72Z" fill="white"/>
<path d="M352.845 49.4155V45.0586H352.697C351.584 46.9047 350.174 48.1601 348.393 48.9724C346.612 49.7847 344.831 50.154 343.05 50.154C340.749 50.154 338.82 49.8586 337.335 49.2678C335.851 48.677 334.664 47.7909 333.847 46.6832C333.031 45.5755 332.363 44.2463 332.066 42.6217C331.695 40.997 331.547 39.2247 331.547 37.3047V18.0309H340.23V35.754C340.23 38.3386 340.601 40.2586 341.417 41.5878C342.233 42.8432 343.643 43.5078 345.721 43.5078C348.096 43.5078 349.803 42.8432 350.842 41.4401C351.88 40.037 352.4 37.7478 352.4 34.5724V18.0309H361.082V49.4155H352.845Z" fill="white"/>
<path d="M365.312 18.0309H375.182L380.748 26.2278L386.239 18.0309H395.813L385.497 32.7263L397.148 49.4155H387.13L380.525 39.5201L373.921 49.4155H364.273L375.627 32.9478L365.312 18.0309Z" fill="white"/>
</g>
<g clip-path="url(#clip1)">
<path d="M166 55V0H80.4214H79.3491H69.3411V21.3035C69.3411 22.4814 70.3113 23.4544 71.4857 23.4544C72.6601 23.4544 73.6303 22.4814 73.6303 21.3035V5.17225H79.2981V23.8128C78.3279 25.8613 76.3876 27.2439 74.0898 27.2439H68.9326C65.7158 27.2439 63.0606 24.6322 63.0606 21.3547V4.60894H57.6481V27.2439H52.6952V27.756C55.2482 28.2169 57.2396 30.2654 57.6481 32.8771H58.1587V27.756H64.4392V50.3911H71.5878V55H79.2981H80.3703H166ZM145.371 37.4348H151.396V38.7663H149.15V45.4236H147.567V38.7663H145.32V37.4348H145.371ZM137.865 37.4348H139.448V42.6071C139.448 43.7337 140.163 44.1946 141.133 44.1946C142.205 44.1946 142.818 43.6825 142.818 42.6071V37.4348H144.401V42.5047C144.401 44.3482 143.227 45.4749 141.184 45.4749C139.142 45.4749 137.916 44.3482 137.916 42.5559V37.4348H137.865ZM142.052 32.0065V24.0689H143.635V32.0577H142.052V32.0065ZM130.717 37.4348H136.742V38.7663H134.495V45.4236H132.912V38.7663H130.717V37.4348ZM127.806 37.4348H129.389V45.4236H127.806V37.4348ZM120.402 37.4348H126.428V38.7663H124.181V45.4236H122.598V38.7663H120.351V37.4348H120.402ZM113.969 43.6313L115.143 43.1704C115.449 43.8873 116.215 44.297 116.93 44.297C117.849 44.297 118.36 43.9898 118.36 43.2728C118.36 41.6341 114.173 42.1974 114.173 39.4832C114.173 38.2542 115.245 37.2812 116.879 37.2812C118.309 37.2812 119.33 37.9469 119.79 38.9199L118.768 39.432C118.462 38.8175 117.849 38.459 117.032 38.459C116.062 38.459 115.705 38.8687 115.705 39.3808C115.705 40.8659 119.841 40.4562 119.841 43.1192C119.841 44.6043 118.717 45.4749 116.981 45.4749C115.552 45.5261 114.326 44.7579 113.969 43.6313ZM106.412 37.4348H107.637L111.211 42.6071V37.4348H112.59V45.4236H111.467L107.79 40.149V45.4236H106.412V37.4348ZM98.5992 32.0065H97.1695V26.6806L94.8717 30.675H94.1569L91.8591 26.6806V32.0065H90.4294V24.0689H91.9102L94.5654 28.8315L97.2205 24.0689H98.7013V32.0065H98.5992ZM102.276 32.0065H100.693V24.0689H102.276V32.0065ZM102.786 37.4348H104.369V45.4236H102.786V37.4348ZM105.646 26.8855V29.2411C105.646 30.2654 106.207 30.9311 107.229 30.9311C107.994 30.9311 108.454 30.6238 108.709 29.9069L109.884 30.3166C109.526 31.4944 108.556 32.1089 107.126 32.1089C105.288 32.1089 104.063 30.9823 104.063 29.2411V26.8855C104.063 25.0419 105.237 23.9153 107.075 23.9153C108.454 23.9153 109.526 24.7346 109.833 25.7076L108.709 26.1685C108.505 25.6052 107.994 25.1955 107.229 25.1955C106.156 25.1955 105.646 25.8101 105.646 26.8855ZM114.735 27.6024L117.9 32.0065H116.113L113.713 28.5754L112.794 29.5996V32.0065H111.211V24.0689H112.794V28.0121L115.807 24.0689H117.645L114.735 27.6024ZM120.76 32.0065H119.177V24.0689H120.76V32.0065ZM122.853 24.0689H128.215V25.3492H124.436V27.3464H127.347V28.5242H124.436V30.7263H128.368V32.0065H122.853V24.0689ZM132.453 18.6406H130.819L130.206 16.8482H126.938L126.325 18.6406H124.691L127.704 10.6518H129.44L132.453 18.6406ZM140.061 15.6192C140.061 17.4628 138.886 18.6406 136.793 18.6406H133.576V10.6518H136.793C138.886 10.6518 140.061 11.8808 140.061 13.6732V15.6192ZM140.52 24.0689L138.172 32.0577H136.487L134.904 26.2197L133.27 32.0065H131.585L129.236 24.0689H130.819L132.402 30.3678L134.087 24.0689H135.568L137.253 30.419L138.835 24.0689H140.52ZM148.333 18.6406H146.699L146.086 16.8482H142.818L142.205 18.6406H140.572L143.584 10.6518H145.32L148.333 18.6406ZM148.435 23.9153C149.814 23.9153 150.886 24.7346 151.192 25.7076L150.069 26.1685C149.865 25.6052 149.354 25.1955 148.588 25.1955C147.516 25.1955 147.005 25.8101 147.005 26.8855V29.2411C147.005 30.2654 147.567 30.9311 148.588 30.9311C149.354 30.9311 149.814 30.6238 150.069 29.9069L151.243 30.3166C150.886 31.4944 149.916 32.1089 148.486 32.1089C146.648 32.1089 145.422 30.9823 145.422 29.2411V26.8855C145.371 25.0931 146.546 23.9153 148.435 23.9153ZM157.677 18.6406H156.247V13.3147L153.95 17.3091H153.184L150.886 13.3147V18.6406H149.456V10.6518H150.937L153.592 15.4143L156.247 10.6518H157.728V18.6406H157.677ZM158.034 24.9395L154.052 30.675H157.983V31.9553H152.162V31.0335L156.145 25.2979H152.316V24.0689H158.034V24.9395ZM158.137 45.3724H152.622V37.4348H157.983V38.7151H154.205V40.7123H157.115V41.8901H154.205V44.0922H158.137V45.3724ZM143.176 15.7216H145.678L144.452 11.9832L143.176 15.7216ZM138.478 15.568V13.7756C138.478 12.4953 137.916 11.932 136.793 11.932H135.159V17.4115H136.793C137.916 17.4115 138.478 16.8482 138.478 15.568ZM127.296 15.7216H129.798L128.572 11.9832L127.296 15.7216ZM51.7761 45.1164H47.0274V55H58.2098V40.0465H57.6992C57.1375 43.0168 54.6866 45.1164 51.7761 45.1164ZM49.223 31.8529H47.0784V41.122H49.2741C49.8357 41.122 50.3974 40.9171 50.8059 40.4562C51.2144 40.0466 51.4186 39.4832 51.4186 38.9199V34.0037C51.3676 32.8259 50.3974 31.8529 49.223 31.8529ZM47.8444 27.756H51.4186V4.60894H46.5168V0H34.7727V5.17225H41.5638V23.1471H47.8444V27.756ZM34.7727 22.2765C34.4153 24.4786 32.8324 26.3222 30.6878 26.9879L30.4835 27.0391V31.8529H24.1009V39.2784H30.4835V43.3752H24.1009V50.4423H30.4835V55H33.2408V49.3156H38.398V55H40.849V27.2439H35.2833V22.2765H34.7727ZM28.5432 21.3035V0H24.203V21.3035C24.203 22.4814 25.1732 23.4544 26.3476 23.4544C27.5731 23.5056 28.5432 22.5326 28.5432 21.3035ZM17.8714 27.756H23.2839V27.2439C20.4245 26.8855 18.2289 24.4786 17.9735 21.406H17.4629C17.2076 24.4786 15.012 26.9367 12.1526 27.2952V27.8073C14.7567 28.1657 16.8502 30.1117 17.3608 32.6722H17.8714V27.756ZM11.1824 16.0801H17.9225V11.7272H11.1824V6.60614C11.1824 5.4283 10.2122 4.45531 9.03784 4.45531C7.86343 4.45531 6.89326 5.4283 6.89326 6.60614V21.2011C6.89326 22.379 7.86343 23.352 9.03784 23.352C10.2122 23.352 11.1824 22.379 11.1824 21.2011V16.0801ZM17.4119 5.27467H17.9225V0H12.2036V0.512104C14.8078 0.972998 16.9013 2.86778 17.4119 5.27467ZM8.93571 31.8529H6.79114V40.9683H8.98677C9.54845 40.9683 10.1101 40.7635 10.5186 40.3538C10.9271 39.9441 11.1313 39.3808 11.1313 38.8175V34.0549C11.0803 32.8259 10.1101 31.8529 8.93571 31.8529ZM8.93571 45.0652H6.74008V55.0512H11.0803V47.216C11.0803 46.0382 10.1101 45.0652 8.93571 45.0652ZM5.71886 0.512104V0H0V5.78678H0.510612C0.970163 3.07263 3.11473 0.921788 5.71886 0.512104ZM0.510612 22.0205H0V27.756H5.51461V27.2439C2.96155 26.7831 0.868041 24.581 0.510612 22.0205ZM13.1227 42.9143V43.4264C15.3184 44.0922 16.9523 45.8845 17.3608 48.1378H17.8714V38.2542H17.3608C16.8502 40.5074 15.2162 42.2998 13.1227 42.9143Z" fill="white"/>
</g>
<defs>
<clipPath id="clip0">
<rect width="162" height="48" fill="white" transform="translate(235 4)"/>
</clipPath>
<clipPath id="clip1">
<rect width="166" height="55" fill="white"/>
</clipPath>
</defs>
</svg>
