<svg viewBox="0 0 585 585" fill="none" xmlns="http://www.w3.org/2000/svg"><g clip-path="url(#clip0)"><path d="M129.419 317.718l-10.932 3.843C47.324 348.24 1.271 390.722 1.271 438.615c0 80.687 130.853 146.114 292.229 146.114 50.437 0 97.843-6.385 139.242-17.642" stroke="#fff" stroke-miterlimit="10"/><path d="M431.497 570.605l10.499-6.115-12.176.054 1.677 6.061z" fill="#fff"/><path d="M450.492 562l12.285-4.275c74.41-26.463 122.952-69.972 122.952-119.11 0-80.688-130.853-146.115-292.229-146.115-53.738 0-104.12 7.252-147.359 19.915" stroke="#fff" stroke-miterlimit="10"/><path d="M147.277 308.789l-10.336 6.44 12.176-.379-1.84-6.061z" fill="#fff"/><path d="M457.581 267.282l10.932-3.843c71.163-26.625 117.216-69.161 117.216-117C585.729 65.752 454.876.325 293.5.325c-50.437 0-97.843 6.385-139.242 17.642" stroke="#fff" stroke-miterlimit="10"/><path d="M155.503 14.395l-10.499 6.115 12.176-.054-1.677-6.061z" fill="#fff"/><path d="M136.508 23l-12.285 4.275C49.813 53.738 1.271 97.247 1.271 146.385 1.27 227.073 132.124 292.5 293.5 292.5c53.738 0 104.12-7.252 147.359-19.915" stroke="#fff" stroke-miterlimit="10"/><path d="M439.723 276.211l10.336-6.44-12.176.379 1.84 6.061z" fill="#fff"/></g><defs><clipPath id="clip0"><path fill="#fff" d="M0 0h585v585H0z"/></clipPath></defs></svg>
