<svg width="1182" height="467" viewBox="0 0 1182 467" fill="none" xmlns="http://www.w3.org/2000/svg">
<g clip-path="url(#clip0)">
<path d="M1181 1V466H1.00006V1H1181ZM1182 0H6.10352e-05V467H1182V0Z" fill="white"/>
<path d="M1008.5 68.7466C1115.36 110.887 1181.45 169.105 1181.45 233.411C1181.45 362.02 917.082 466.277 590.963 466.277C264.844 466.277 0.472168 362.02 0.472168 233.411C0.472168 104.802 264.844 0.544678 590.963 0.544678C754.019 0.544678 901.638 26.6079 1008.5 68.7466" stroke="white" stroke-miterlimit="10"/>
<path d="M605.092 227.21C669.171 252.553 708.804 287.564 708.804 326.236C708.804 403.579 550.277 466.277 354.724 466.277C159.172 466.277 0.644714 403.579 0.644714 326.236C0.644714 248.893 159.172 186.195 354.724 186.195C452.498 186.195 541.016 201.869 605.092 227.21" stroke="white" stroke-miterlimit="10"/>
<path d="M476.779 182.818C477.263 179.492 479.913 177.289 482.89 177.723C483.56 177.805 484.196 178.063 484.733 178.471C485.27 178.879 485.69 179.422 485.949 180.045L486.03 179.49C485.902 179.272 485.759 179.062 485.603 178.862L486.922 178.358L486.357 182.238L485.819 182.16L485.608 181.384C485.164 179.655 484.207 178.675 482.813 178.472C480.755 178.173 479.091 179.935 478.665 182.865C478.241 185.78 479.44 187.992 481.625 188.309C483.241 188.544 484.507 187.952 485.808 186.347L485.867 186.388C485.504 187.298 484.848 188.061 484.003 188.556C483.157 189.051 482.171 189.25 481.2 189.121C480.487 189.015 479.804 188.765 479.191 188.387C478.578 188.008 478.049 187.509 477.636 186.919C477.222 186.33 476.933 185.662 476.786 184.957C476.638 184.252 476.636 183.524 476.779 182.818Z" fill="white"/>
<path d="M487.361 184.247C487.441 183.512 487.667 182.8 488.025 182.154C488.384 181.507 488.867 180.938 489.448 180.481C490.029 180.024 490.696 179.687 491.409 179.491C492.121 179.295 492.866 179.243 493.599 179.338C494.316 179.466 495 179.737 495.61 180.136C496.22 180.534 496.743 181.052 497.148 181.657C497.552 182.263 497.831 182.944 497.966 183.66C498.101 184.376 498.09 185.112 497.934 185.823C497.854 186.559 497.629 187.272 497.27 187.919C496.912 188.567 496.428 189.137 495.847 189.595C495.266 190.054 494.6 190.392 493.886 190.59C493.173 190.788 492.428 190.842 491.693 190.748C490.975 190.619 490.29 190.347 489.68 189.947C489.07 189.547 488.546 189.028 488.142 188.421C487.737 187.814 487.459 187.131 487.325 186.414C487.191 185.696 487.204 184.959 487.361 184.247ZM496.009 185.902C496.546 182.568 495.34 180.3 493.271 179.966C491.391 179.662 489.692 181.252 489.223 184.158C488.686 187.491 489.891 189.761 491.961 190.095C493.841 190.398 495.54 188.808 496.009 185.902Z" fill="white"/>
<path d="M507.711 193.494L501.74 182.992L500.457 190.144C500.408 190.304 500.392 190.471 500.411 190.637C500.431 190.802 500.484 190.962 500.569 191.106C500.653 191.25 500.766 191.374 500.902 191.472C501.037 191.569 501.191 191.637 501.354 191.672L501.708 191.784L501.626 192.241L497.813 191.558L497.895 191.1L498.266 191.119C498.431 191.144 498.598 191.134 498.759 191.089C498.919 191.044 499.068 190.967 499.196 190.86C499.324 190.754 499.428 190.622 499.501 190.473C499.575 190.324 499.616 190.161 499.622 189.995L501.04 182.086L500.011 180.568L502.563 181.025L507.306 189.225L507.201 189.808L507.438 190.209L508.554 183.985C508.603 183.826 508.618 183.658 508.599 183.493C508.58 183.327 508.526 183.167 508.442 183.024C508.357 182.88 508.244 182.755 508.109 182.658C507.974 182.56 507.82 182.492 507.656 182.458L507.303 182.346L507.385 181.888L511.197 182.573L511.116 183.03L510.745 183.012C510.58 182.987 510.412 182.997 510.252 183.041C510.092 183.086 509.943 183.163 509.815 183.269C509.687 183.375 509.583 183.507 509.509 183.656C509.436 183.805 509.395 183.968 509.389 184.134L507.711 193.494Z" fill="white"/>
<path d="M514.068 194.048L514.423 194.15L514.334 194.605L509.718 193.699L509.808 193.244L510.175 193.283C510.326 193.322 510.484 193.327 510.637 193.299C510.79 193.271 510.936 193.211 511.063 193.121C511.191 193.031 511.298 192.915 511.376 192.781C511.455 192.646 511.503 192.496 511.518 192.341L513.03 184.647C513.075 184.498 513.087 184.341 513.065 184.186C513.043 184.032 512.988 183.884 512.904 183.753C512.82 183.621 512.708 183.51 512.577 183.426C512.445 183.342 512.297 183.288 512.143 183.266L511.788 183.165L511.877 182.709L520.811 184.465L520.246 188.332L519.744 188.233L519.642 186.925C519.534 185.485 518.972 184.771 517.748 184.531L514.326 183.859L514.264 184.173L514.829 184.284L513.996 188.522L515.723 188.862C516.508 189.015 516.934 188.758 517.339 187.858L517.57 187.349L518.087 187.451L517.273 191.596L516.755 191.494L516.734 190.936C516.696 189.967 516.4 189.565 515.615 189.411L513.323 188.961L513.262 189.274L513.827 189.386L513.182 192.667C513.137 192.816 513.125 192.973 513.147 193.128C513.168 193.282 513.223 193.43 513.307 193.561C513.391 193.693 513.503 193.804 513.634 193.888C513.766 193.972 513.914 194.026 514.068 194.048V194.048Z" fill="white"/>
<path d="M522.545 195.271L522.478 195.584L525.998 196.337C527.281 196.611 528.213 196.075 528.964 194.632L529.463 193.675L529.979 193.786L528.646 197.574L519.776 195.677L519.873 195.224L520.239 195.269C520.39 195.31 520.547 195.318 520.701 195.293C520.855 195.268 521.001 195.209 521.131 195.122C521.26 195.034 521.368 194.92 521.449 194.786C521.53 194.653 521.58 194.504 521.598 194.349L523.237 186.684C523.284 186.535 523.299 186.378 523.28 186.223C523.26 186.069 523.208 185.92 523.126 185.788C523.044 185.655 522.934 185.542 522.804 185.456C522.674 185.37 522.527 185.313 522.373 185.289L522.02 185.181L522.117 184.727L531.018 186.63L530.39 190.487L529.889 190.38L529.809 189.07C529.725 187.629 529.176 186.906 527.956 186.646L524.546 185.917L524.479 186.229L525.042 186.35L524.159 190.48L525.801 190.831C526.583 190.999 527.013 190.747 527.433 189.854L527.672 189.351L528.188 189.461L527.305 193.59L526.789 193.479L526.777 192.921C526.756 191.952 526.466 191.546 525.684 191.38L524.042 191.027L523.108 195.392L522.545 195.271Z" fill="white"/>
<path d="M533.552 196.96C533.502 197.107 533.485 197.264 533.501 197.419C533.517 197.574 533.567 197.724 533.647 197.858C533.726 197.992 533.834 198.107 533.963 198.195C534.091 198.283 534.237 198.343 534.391 198.369L534.743 198.484L534.637 198.936L530.055 197.873L530.16 197.421L530.526 197.472C530.675 197.516 530.833 197.527 530.987 197.505C531.141 197.482 531.289 197.426 531.42 197.341C531.55 197.256 531.661 197.143 531.744 197.011C531.827 196.879 531.88 196.731 531.9 196.576L533.674 188.938C533.725 188.79 533.742 188.634 533.726 188.478C533.709 188.323 533.66 188.173 533.58 188.039C533.5 187.905 533.393 187.79 533.264 187.702C533.135 187.613 532.989 187.554 532.836 187.527L532.484 187.412L532.589 186.961L537.717 188.152C539.931 188.667 541.174 190.105 540.801 191.712C540.589 192.361 540.169 192.923 539.607 193.312C539.045 193.7 538.371 193.893 537.689 193.862C538.004 194.06 538.271 194.325 538.471 194.639C538.671 194.952 538.799 195.307 538.845 195.676L539.353 198.651C539.393 198.915 539.51 199.162 539.688 199.361C539.867 199.56 540.099 199.703 540.357 199.772L540.553 199.85L540.451 200.287L537.708 199.649L537.121 195.177C537.001 194.278 536.656 193.852 535.893 193.676L533.835 193.197L533.762 193.509L534.324 193.639L533.552 196.96ZM536.284 193.191C536.578 193.276 536.887 193.297 537.191 193.254C537.494 193.212 537.785 193.105 538.045 192.943C538.304 192.78 538.526 192.564 538.697 192.31C538.868 192.055 538.983 191.768 539.035 191.466C539.129 191.173 539.158 190.863 539.12 190.558C539.081 190.253 538.977 189.96 538.813 189.7C538.65 189.44 538.432 189.218 538.174 189.051C537.915 188.884 537.624 188.776 537.32 188.733L534.997 188.193L534.925 188.506L535.486 188.636L534.523 192.782L536.284 193.191Z" fill="white"/>
<path d="M543.586 200.068L543.508 200.379L547 201.259C548.272 201.58 549.223 201.078 550.026 199.662L550.56 198.724L551.072 198.852L549.601 202.592L540.803 200.374L540.917 199.923L541.282 199.982C541.43 200.029 541.587 200.043 541.742 200.023C541.897 200.003 542.045 199.95 542.177 199.867C542.31 199.785 542.422 199.674 542.508 199.544C542.593 199.414 542.65 199.266 542.673 199.112L544.59 191.509C544.642 191.362 544.663 191.205 544.649 191.05C544.636 190.895 544.589 190.744 544.512 190.609C544.435 190.473 544.329 190.356 544.202 190.265C544.075 190.174 543.931 190.112 543.777 190.083L543.428 189.963L543.542 189.511L552.371 191.737L551.602 195.571L551.106 195.445L551.073 194.134C551.041 192.689 550.519 191.947 549.308 191.643L545.926 190.79L545.848 191.1L546.406 191.241L545.374 195.338L547.003 195.748C547.779 195.944 548.218 195.708 548.669 194.832L548.927 194.336L549.439 194.464L548.406 198.56L547.894 198.431L547.903 197.872C547.916 196.903 547.642 196.487 546.866 196.291L545.237 195.881L544.145 200.21L543.586 200.068Z" fill="white"/>
<path d="M560.68 205.76L555.683 194.766L553.76 201.771C553.697 201.925 553.666 202.091 553.671 202.258C553.675 202.424 553.714 202.588 553.785 202.739C553.856 202.889 553.958 203.024 554.083 203.133C554.209 203.242 554.357 203.324 554.516 203.373L554.858 203.515L554.735 203.964L551.001 202.94L551.124 202.492L551.492 202.543C551.653 202.583 551.821 202.588 551.984 202.558C552.148 202.529 552.303 202.465 552.44 202.371C552.578 202.277 552.693 202.155 552.78 202.013C552.866 201.871 552.922 201.712 552.943 201.548L555.068 193.801L554.181 192.196L556.681 192.883L560.661 201.475L560.505 202.047L560.705 202.466L562.377 196.371C562.441 196.217 562.471 196.051 562.467 195.885C562.463 195.718 562.424 195.554 562.353 195.403C562.282 195.253 562.18 195.118 562.054 195.009C561.928 194.9 561.781 194.818 561.622 194.769L561.28 194.626L561.403 194.178L565.137 195.203L565.014 195.651L564.647 195.6C564.485 195.56 564.317 195.555 564.154 195.585C563.99 195.614 563.835 195.678 563.698 195.772C563.561 195.866 563.445 195.988 563.358 196.13C563.272 196.272 563.216 196.431 563.195 196.595L560.68 205.76Z" fill="white"/>
<path d="M564.383 200.989C565.343 197.768 568.282 195.975 571.164 196.835C571.814 197.012 572.405 197.359 572.878 197.84C573.35 198.321 573.687 198.919 573.853 199.572L574.012 199.036C573.918 198.801 573.807 198.573 573.682 198.352L575.059 198.046L573.939 201.802L573.418 201.646L573.322 200.849C573.133 199.073 572.328 197.966 570.979 197.563C568.987 196.97 567.086 198.472 566.24 201.309C565.399 204.13 566.264 206.491 568.379 207.122C569.943 207.588 571.282 207.186 572.801 205.786L572.853 205.835C572.363 206.682 571.603 207.342 570.696 207.709C569.788 208.077 568.784 208.131 567.842 207.863C567.152 207.655 566.513 207.309 565.962 206.846C565.41 206.383 564.959 205.812 564.636 205.169C564.312 204.526 564.123 203.824 564.079 203.105C564.036 202.386 564.139 201.666 564.383 200.989V200.989Z" fill="white"/>
<path d="M575.585 209.053L575.487 209.357L578.914 210.462C580.163 210.864 581.145 210.425 582.037 209.063L582.63 208.164L583.133 208.326L581.423 211.96L572.788 209.176L572.931 208.736L573.291 208.818C573.436 208.874 573.592 208.898 573.748 208.889C573.904 208.879 574.055 208.835 574.193 208.761C574.33 208.687 574.45 208.584 574.543 208.46C574.637 208.335 574.702 208.191 574.735 208.039L577.141 200.577C577.203 200.434 577.234 200.279 577.23 200.123C577.227 199.967 577.19 199.814 577.122 199.674C577.053 199.533 576.956 199.41 576.835 199.311C576.714 199.212 576.574 199.141 576.423 199.101L576.083 198.958L576.225 198.515L584.89 201.309L583.875 205.085L583.388 204.927L583.441 203.615C583.502 202.174 583.029 201.398 581.841 201.015L578.521 199.945L578.423 200.25L578.971 200.427L577.675 204.447L579.274 204.963C580.036 205.209 580.489 205.001 580.997 204.156L581.285 203.677L581.788 203.84L580.492 207.861L579.989 207.699L580.035 207.141C580.111 206.175 579.864 205.741 579.103 205.496L577.503 204.98L576.134 209.229L575.585 209.053Z" fill="white"/>
<path d="M590.341 200.993L590.335 201.01C589.518 201.299 588.776 201.77 588.166 202.386C587.556 203.003 587.094 203.749 586.814 204.57C586.534 205.391 586.443 206.264 586.549 207.125C586.655 207.986 586.955 208.811 587.425 209.54L587.419 209.558C586.64 208.943 586.071 208.102 585.79 207.15C585.509 206.197 585.531 205.182 585.851 204.242C586.172 203.303 586.776 202.486 587.58 201.904C588.384 201.322 589.349 201.004 590.341 200.993V200.993Z" fill="white"/>
<path d="M589.089 208.501L589.348 208.354L590.686 208.822C591.346 209.054 591.77 208.975 592.042 208.676L592.324 208.381L592.606 208.479L591.796 209.914L588.02 208.59L591.12 206.544C591.761 206.215 592.267 205.672 592.549 205.009C592.827 204.216 592.595 203.581 591.935 203.348C591.808 203.288 591.67 203.256 591.529 203.255C591.389 203.253 591.25 203.282 591.121 203.34C590.993 203.397 590.879 203.482 590.786 203.588C590.694 203.693 590.626 203.818 590.586 203.953L590.771 204.018C590.685 204.403 590.416 204.605 590.108 204.497C590.046 204.473 589.988 204.437 589.94 204.39C589.891 204.344 589.853 204.288 589.827 204.226C589.8 204.164 589.787 204.097 589.787 204.03C589.787 203.963 589.8 203.897 589.827 203.835C590.032 203.421 590.391 203.104 590.827 202.952C591.263 202.8 591.741 202.825 592.158 203.022C593.417 203.465 593.823 204.308 593.513 205.188C593.344 205.673 592.885 206.135 591.897 206.697L588.887 208.429L589.089 208.501Z" fill="white"/>
<path d="M592.061 211.188L592.068 211.171C592.891 210.897 593.641 210.441 594.263 209.836C594.884 209.231 595.361 208.494 595.657 207.678C595.952 206.863 596.059 205.991 595.97 205.128C595.881 204.266 595.597 203.434 595.14 202.697L595.147 202.679C595.914 203.309 596.467 204.162 596.729 205.119C596.992 206.077 596.951 207.092 596.613 208.025C596.274 208.958 595.655 209.764 594.84 210.33C594.025 210.897 593.054 211.196 592.061 211.188V211.188Z" fill="white"/>
<path d="M290.917 352.234C321.708 364.323 340.752 381.025 340.752 399.473C340.752 436.368 264.578 466.277 170.612 466.277C76.6464 466.277 0.472168 436.368 0.472168 399.473C0.472168 362.578 76.6464 332.668 170.612 332.668C217.594 332.668 260.128 340.145 290.917 352.234" stroke="white" stroke-miterlimit="10"/>
<path d="M194.928 325.049L194.906 325.593C194.95 325.66 195.264 325.987 195.369 326.091L194.139 326.711L194.36 322.811L194.919 322.85L195.271 323.79C195.433 324.46 195.8 325.062 196.322 325.512C196.843 325.962 197.493 326.238 198.179 326.301C198.463 326.362 198.756 326.361 199.04 326.299C199.323 326.237 199.59 326.115 199.823 325.941C200.055 325.767 200.248 325.545 200.387 325.29C200.527 325.036 200.61 324.754 200.632 324.465C200.635 324.003 200.492 323.552 200.225 323.176C199.957 322.801 199.577 322.519 199.14 322.371L196.484 321.097C195.939 320.888 195.476 320.51 195.163 320.017C194.851 319.524 194.705 318.944 194.748 318.362C194.766 317.935 194.873 317.516 195.063 317.133C195.253 316.75 195.52 316.411 195.849 316.137C196.178 315.864 196.56 315.662 196.971 315.545C197.382 315.428 197.814 315.398 198.237 315.458C198.871 315.499 199.481 315.715 200 316.082C200.519 316.449 200.925 316.953 201.174 317.538L201.199 316.946C201.064 316.726 200.912 316.517 200.745 316.32L201.939 315.746L201.729 319.486L201.171 319.447L200.93 318.757C200.34 317.063 199.481 316.265 198.14 316.173C197.903 316.131 197.66 316.142 197.427 316.202C197.195 316.263 196.978 316.372 196.791 316.523C196.604 316.675 196.452 316.864 196.344 317.079C196.237 317.295 196.177 317.53 196.168 317.77C196.161 318.181 196.282 318.583 196.515 318.921C196.748 319.259 197.08 319.516 197.466 319.656L200.325 321.01C200.901 321.24 201.388 321.65 201.716 322.177C202.043 322.705 202.193 323.323 202.144 323.942C202.006 325.938 200.381 327.175 198.097 327.016C197.449 326.969 196.823 326.765 196.271 326.422C195.719 326.079 195.258 325.608 194.928 325.049V325.049Z" fill="white"/>
<path d="M205.275 326.41L205.246 326.729L208.83 327.057C210.136 327.175 210.998 326.531 211.57 325.009L211.952 324L212.477 324.049L211.606 327.968L202.574 327.144L202.616 326.683L202.985 326.685C203.14 326.707 203.297 326.697 203.447 326.653C203.596 326.609 203.735 326.534 203.853 326.432C203.97 326.329 204.064 326.203 204.129 326.061C204.193 325.919 204.225 325.764 204.224 325.608L204.936 317.803C204.965 317.65 204.961 317.492 204.924 317.341C204.886 317.189 204.816 317.048 204.719 316.926C204.622 316.804 204.499 316.705 204.36 316.635C204.221 316.565 204.068 316.526 203.912 316.521L203.549 316.455L203.591 315.993L212.655 316.819L212.491 320.725L211.982 320.679L211.746 319.388C211.49 317.967 210.859 317.315 209.616 317.202L206.144 316.885L206.115 317.204L206.688 317.257L206.305 321.461L207.977 321.613C208.774 321.687 209.171 321.386 209.481 320.449L209.658 319.92L210.183 319.968L209.8 324.174L209.274 324.125L209.196 323.572C209.059 322.611 208.723 322.243 207.926 322.172L206.254 322.018L205.849 326.463L205.275 326.41Z" fill="white"/>
<path d="M214.372 316.956L217.915 317.392L220.234 325.934L219.922 326.509L220.065 326.913L224.841 318.244L228.289 318.669L228.232 319.13L227.862 319.116C227.709 319.088 227.551 319.094 227.4 319.133C227.249 319.172 227.109 319.243 226.988 319.341C226.867 319.44 226.769 319.563 226.7 319.703C226.631 319.843 226.594 319.996 226.59 320.152L225.632 327.937C225.598 328.089 225.597 328.247 225.63 328.4C225.663 328.552 225.728 328.696 225.821 328.821C225.915 328.946 226.034 329.049 226.171 329.123C226.308 329.198 226.46 329.242 226.616 329.252L226.977 329.328L226.92 329.789L222.265 329.216L222.322 328.755L222.691 328.768C222.845 328.796 223.003 328.79 223.154 328.752C223.305 328.713 223.445 328.642 223.566 328.543C223.687 328.445 223.785 328.321 223.854 328.181C223.923 328.041 223.96 327.888 223.964 327.732L224.857 320.471L225.188 319.884L224.854 319.843L219.504 329.376L219.472 329.373L216.538 318.626L215.566 326.52C215.525 326.682 215.519 326.851 215.547 327.015C215.576 327.179 215.638 327.336 215.73 327.475C215.822 327.614 215.942 327.732 216.083 327.822C216.223 327.912 216.381 327.971 216.546 327.997L216.905 328.09L216.848 328.55L213.004 328.076L213.061 327.616L213.432 327.613C213.597 327.629 213.764 327.61 213.922 327.556C214.079 327.503 214.224 327.417 214.346 327.304C214.468 327.191 214.565 327.054 214.63 326.901C214.695 326.748 214.727 326.583 214.724 326.417L215.639 318.982C215.682 318.822 215.691 318.654 215.665 318.49C215.639 318.326 215.578 318.169 215.487 318.03C215.396 317.891 215.277 317.772 215.137 317.683C214.997 317.593 214.84 317.534 214.675 317.51L214.316 317.416L214.372 316.956Z" fill="white"/>
<path d="M231.85 330.064L232.21 330.149L232.142 330.609L227.488 329.918L227.556 329.458L227.924 329.481C228.077 329.513 228.235 329.511 228.387 329.476C228.539 329.441 228.682 329.373 228.805 329.277C228.928 329.182 229.03 329.061 229.102 328.922C229.174 328.784 229.215 328.631 229.222 328.476L230.374 320.72C230.412 320.569 230.417 320.411 230.388 320.257C230.359 320.104 230.298 319.959 230.207 319.832C230.117 319.705 230 319.598 229.865 319.521C229.73 319.443 229.579 319.396 229.424 319.382L229.064 319.296L229.133 318.837L233.787 319.527L233.719 319.986L233.35 319.964C233.197 319.932 233.039 319.934 232.887 319.969C232.735 320.004 232.593 320.072 232.469 320.167C232.346 320.263 232.245 320.384 232.173 320.522C232.101 320.661 232.059 320.813 232.052 320.969L230.9 328.726C230.862 328.877 230.858 329.035 230.886 329.188C230.915 329.341 230.977 329.487 231.067 329.614C231.157 329.741 231.274 329.847 231.409 329.925C231.545 330.003 231.695 330.05 231.85 330.064V330.064Z" fill="white"/>
<path d="M242.614 332.528L236.576 322.076L235.344 329.23C235.296 329.39 235.281 329.558 235.302 329.723C235.322 329.888 235.377 330.047 235.462 330.19C235.547 330.333 235.661 330.457 235.797 330.553C235.933 330.65 236.087 330.717 236.251 330.75L236.605 330.859L236.526 331.317L232.712 330.66L232.791 330.203L233.161 330.219C233.326 330.242 233.493 330.231 233.653 330.185C233.813 330.14 233.961 330.061 234.089 329.954C234.216 329.847 234.319 329.714 234.391 329.565C234.464 329.415 234.504 329.252 234.509 329.086L235.872 321.175L234.833 319.666L237.386 320.105L242.18 328.267L242.079 328.85L242.319 329.247L243.391 323.022C243.439 322.863 243.454 322.695 243.433 322.53C243.413 322.365 243.358 322.206 243.273 322.063C243.188 321.92 243.074 321.796 242.938 321.7C242.802 321.603 242.648 321.536 242.485 321.503L242.13 321.394L242.209 320.937L246.023 321.594L245.944 322.052L245.574 322.036C245.41 322.012 245.242 322.023 245.082 322.069C244.923 322.114 244.774 322.192 244.647 322.299C244.52 322.406 244.417 322.538 244.344 322.688C244.272 322.837 244.232 323 244.227 323.166L242.614 332.528Z" fill="white"/>
<path d="M251.994 330.72L251.933 330.382L247.184 329.411L246.162 330.9C245.515 331.829 245.716 332.359 246.465 332.611L246.725 332.696L246.632 333.151L243.435 332.498L243.522 332.075C243.856 332.042 244.178 331.931 244.462 331.751C244.745 331.57 244.982 331.326 245.154 331.037L251.329 322.145L251.361 322.151L253.56 332.885C253.589 333.203 253.704 333.507 253.893 333.764C254.082 334.022 254.338 334.223 254.633 334.346L254.547 334.77L250.613 333.965L250.706 333.51L250.979 333.533C251.571 333.589 251.962 333.276 251.817 332.545L251.43 330.605L251.994 330.72ZM247.531 328.911L251.261 329.673L250.308 324.825L247.531 328.911Z" fill="white"/>
<path d="M258.346 333.951C258.295 334.098 258.276 334.255 258.291 334.41C258.306 334.565 258.355 334.715 258.433 334.849C258.512 334.984 258.619 335.1 258.747 335.189C258.875 335.278 259.02 335.339 259.174 335.366L259.524 335.483L259.416 335.933L254.843 334.837L254.952 334.386L255.317 334.441C255.466 334.486 255.624 334.498 255.778 334.476C255.932 334.455 256.08 334.4 256.211 334.316C256.342 334.231 256.454 334.12 256.538 333.988C256.622 333.857 256.676 333.709 256.697 333.554L258.526 325.935C258.577 325.788 258.596 325.631 258.581 325.476C258.566 325.321 258.517 325.171 258.439 325.036C258.36 324.902 258.253 324.786 258.125 324.697C257.997 324.607 257.852 324.547 257.698 324.519L257.348 324.402L257.456 323.95L262.573 325.179C264.781 325.71 266.013 327.156 265.628 328.758C265.412 329.406 264.989 329.965 264.424 330.349C263.86 330.733 263.184 330.922 262.502 330.885C262.815 331.086 263.08 331.353 263.278 331.667C263.475 331.982 263.601 332.337 263.645 332.706L264.13 335.684C264.169 335.949 264.284 336.196 264.461 336.396C264.638 336.596 264.869 336.741 265.126 336.812L265.321 336.891L265.217 337.327L262.479 336.671L261.925 332.195C261.936 331.84 261.819 331.492 261.596 331.215C261.373 330.938 261.058 330.75 260.708 330.685L258.656 330.192L258.581 330.504L259.141 330.638L258.346 333.951ZM261.103 330.205C261.397 330.292 261.706 330.315 262.009 330.275C262.313 330.234 262.604 330.13 262.865 329.969C263.125 329.808 263.349 329.594 263.521 329.341C263.694 329.088 263.811 328.801 263.865 328.5C263.961 328.208 263.992 327.899 263.956 327.594C263.92 327.289 263.818 326.995 263.657 326.734C263.495 326.473 263.279 326.25 263.022 326.081C262.765 325.913 262.475 325.802 262.171 325.758L259.854 325.201L259.779 325.512L260.339 325.646L259.346 329.783L261.103 330.205Z" fill="white"/>
<path d="M266.809 336.152L266.68 336.68C266.709 336.756 266.952 337.138 267.035 337.26L265.706 337.626L266.696 333.847L267.237 333.996L267.396 334.986C267.421 335.675 267.662 336.338 268.083 336.883C268.505 337.428 269.087 337.827 269.747 338.024C270.013 338.14 270.301 338.198 270.591 338.193C270.882 338.189 271.168 338.122 271.43 337.998C271.692 337.873 271.925 337.694 272.112 337.472C272.299 337.25 272.437 336.99 272.515 336.711C272.61 336.259 272.56 335.789 272.372 335.368C272.184 334.947 271.868 334.595 271.468 334.364L269.118 332.588C268.626 332.275 268.247 331.812 268.038 331.267C267.829 330.723 267.802 330.125 267.959 329.563C268.061 329.148 268.25 328.759 268.512 328.421C268.774 328.083 269.103 327.804 269.48 327.601C269.856 327.398 270.271 327.276 270.697 327.243C271.123 327.21 271.552 327.266 271.955 327.409C272.568 327.575 273.123 327.908 273.559 328.371C273.994 328.833 274.293 329.408 274.421 330.03L274.563 329.456C274.474 329.214 274.366 328.979 274.241 328.753L275.527 328.426L274.579 332.05L274.039 331.901L273.94 331.177C273.698 329.4 273.014 328.448 271.718 328.091C271.494 328.003 271.254 327.965 271.014 327.978C270.774 327.991 270.539 328.056 270.326 328.167C270.113 328.278 269.926 328.434 269.778 328.623C269.631 328.813 269.525 329.032 269.469 329.265C269.38 329.666 269.419 330.085 269.58 330.462C269.741 330.84 270.016 331.158 270.366 331.372L272.9 333.264C273.419 333.605 273.815 334.103 274.031 334.685C274.248 335.267 274.272 335.903 274.101 336.5C273.57 338.428 271.731 339.317 269.525 338.71C268.899 338.534 268.326 338.21 267.853 337.764C267.38 337.319 267.021 336.766 266.809 336.152V336.152Z" fill="white"/>
<path d="M280.989 328.032L280.984 328.05C280.178 328.37 279.456 328.869 278.87 329.509C278.285 330.149 277.852 330.913 277.605 331.744C277.357 332.575 277.3 333.451 277.44 334.307C277.579 335.163 277.91 335.976 278.408 336.685L278.403 336.702C277.601 336.118 277 335.299 276.682 334.359C276.365 333.419 276.347 332.403 276.63 331.452C276.914 330.502 277.485 329.662 278.266 329.049C279.047 328.437 279.998 328.081 280.989 328.032V328.032Z" fill="white"/>
<path d="M281.17 335.485C281.055 335.85 281.228 336.109 281.694 336.306L281.876 336.382L281.803 336.614L279.194 335.792L279.267 335.561L279.451 335.601C279.945 335.705 280.236 335.593 280.351 335.227L281.735 330.828C281.822 330.552 281.764 330.426 281.392 330.113L281.084 329.85L282.894 330.008L281.17 335.485Z" fill="white"/>
<path d="M281.923 337.81L281.928 337.794C282.743 337.497 283.479 337.019 284.083 336.397C284.686 335.775 285.141 335.024 285.413 334.2C285.684 333.377 285.766 332.503 285.652 331.644C285.538 330.785 285.23 329.963 284.753 329.239L284.759 329.221C285.543 329.828 286.12 330.664 286.411 331.613C286.701 332.561 286.689 333.577 286.378 334.519C286.067 335.461 285.472 336.283 284.674 336.873C283.876 337.462 282.915 337.79 281.923 337.81Z" fill="white"/>
<path d="M0 467L1181.3 0" stroke="white" stroke-miterlimit="10"/>
<path d="M605.712 236.532C610.636 236.532 614.627 232.541 614.627 227.617C614.627 222.694 610.636 218.702 605.712 218.702C600.789 218.702 596.798 222.694 596.798 227.617C596.798 232.541 600.789 236.532 605.712 236.532Z" fill="#1B1B1B" stroke="white" stroke-miterlimit="10"/>
<path d="M290.095 361.232C295.019 361.232 299.01 357.241 299.01 352.318C299.01 347.394 295.019 343.403 290.095 343.403C285.172 343.403 281.181 347.394 281.181 352.318C281.181 357.241 285.172 361.232 290.095 361.232Z" fill="#1B1B1B" stroke="white" stroke-miterlimit="10"/>
<path d="M1008.29 76.9163C1013.21 76.9163 1017.2 72.925 1017.2 68.0015C1017.2 63.078 1013.21 59.0867 1008.29 59.0867C1003.37 59.0867 999.375 63.078 999.375 68.0015C999.375 72.925 1003.37 76.9163 1008.29 76.9163Z" fill="#1B1B1B" stroke="white" stroke-miterlimit="10"/>
<path d="M895.979 25.8611L895.906 26.1707L899.41 26.9988C900.687 27.3005 901.631 26.7839 902.412 25.3582L902.932 24.4119L903.445 24.5339L902.031 28.2937L893.201 26.2068L893.307 25.7556L893.673 25.8093C893.823 25.8539 893.98 25.8655 894.134 25.8434C894.289 25.8213 894.437 25.766 894.568 25.6812C894.699 25.5965 894.81 25.4843 894.893 25.3525C894.977 25.2207 895.03 25.0724 895.051 24.9177L896.854 17.2859C896.905 17.1384 896.923 16.9818 896.907 16.8267C896.891 16.6716 896.842 16.5218 896.763 16.3875C896.684 16.2532 896.576 16.1377 896.448 16.0489C896.32 15.96 896.174 15.8999 896.021 15.8728L895.67 15.7576L895.777 15.3064L904.638 17.3992L903.927 21.2439L903.428 21.1257L903.377 19.8152C903.323 18.3708 902.79 17.6365 901.575 17.3494L898.18 16.5476L898.106 16.8591L898.667 16.991L897.696 21.1033L899.331 21.489C900.109 21.6736 900.545 21.4304 900.983 20.5486L901.233 20.0486L901.747 20.1697L900.776 24.281L900.262 24.1599L900.262 23.6003C900.261 22.6306 899.98 22.2185 899.202 22.0339L897.567 21.6482L896.54 25.9929L895.979 25.8611Z" fill="white"/>
<path d="M906.261 29.324L902.969 28.5086L903.081 28.0574C903.463 28.0819 903.847 28.0299 904.209 27.9045C904.571 27.7791 904.905 27.5827 905.19 27.3269L908.913 24.2781L907.387 19.7947C907.298 19.4468 907.131 19.1235 906.899 18.8492C906.667 18.5748 906.377 18.3566 906.048 18.2107L906.16 17.7595L910.384 18.8064L910.272 19.2576L909.938 19.2078C909.302 19.115 909.055 19.5154 909.312 20.2712L910.152 22.738L909.698 23.1043L909.831 23.4334L912.76 21.1267C913.396 20.6248 913.418 20.1355 912.75 19.9041L912.431 19.7927L912.543 19.3416L915.835 20.158L915.724 20.6082C915.343 20.5853 914.963 20.6383 914.603 20.7642C914.244 20.8902 913.913 21.0864 913.63 21.3416L910.561 23.8132L912.412 29.117C912.501 29.4787 912.676 29.8135 912.923 30.0927C913.169 30.3719 913.48 30.5873 913.828 30.7205L913.716 31.1707L909.414 30.1052L909.526 29.6541L909.86 29.7039C910.481 29.7927 910.736 29.3611 910.486 28.6404L909.358 25.3445L909.811 24.9783L909.686 24.6179L906.044 27.5398C905.428 28.0291 905.417 28.5378 906.054 28.7615L906.373 28.8738L906.261 29.324Z" fill="white"/>
<path d="M918.133 27.0244L918.69 27.1699L917.82 30.5C917.766 30.6462 917.744 30.8025 917.756 30.958C917.768 31.1135 917.814 31.2646 917.89 31.4007C917.966 31.5369 918.071 31.655 918.197 31.7468C918.323 31.8386 918.467 31.902 918.62 31.9326L918.968 32.0576L918.851 32.5068L914.298 31.3174L914.415 30.8672L914.779 30.9287C914.928 30.9769 915.085 30.9923 915.24 30.9739C915.395 30.9555 915.544 30.9037 915.677 30.8221C915.81 30.7405 915.924 30.631 916.01 30.5012C916.097 30.3715 916.154 30.2244 916.178 30.0703L918.162 22.4824C918.216 22.3361 918.238 22.1797 918.226 22.0241C918.214 21.8686 918.168 21.7175 918.092 21.5812C918.016 21.445 917.911 21.3268 917.785 21.2349C917.659 21.143 917.515 21.0795 917.362 21.0488L917.013 20.9248L917.131 20.4756L921.684 21.665L921.567 22.1143L921.203 22.0527C921.054 22.0047 920.897 21.9894 920.742 22.0079C920.587 22.0264 920.438 22.0782 920.305 22.1597C920.172 22.2413 920.059 22.3507 919.972 22.4804C919.885 22.6101 919.828 22.7571 919.803 22.9111L918.913 26.3184L924.008 27.6494L924.898 24.2432C924.953 24.0969 924.975 23.9405 924.963 23.7849C924.951 23.6294 924.905 23.4782 924.829 23.342C924.753 23.2057 924.648 23.0875 924.522 22.9956C924.396 22.9037 924.252 22.8402 924.099 22.8096L923.751 22.6856L923.868 22.2364L928.421 23.4268L928.304 23.875L927.94 23.8135C927.791 23.7655 927.634 23.7502 927.479 23.7687C927.324 23.7872 927.175 23.839 927.042 23.9206C926.909 24.0021 926.796 24.1115 926.709 24.2412C926.622 24.3709 926.565 24.5178 926.54 24.6719L924.557 32.2608C924.503 32.4071 924.481 32.5635 924.493 32.7191C924.505 32.8746 924.551 33.0258 924.627 33.162C924.703 33.2983 924.807 33.4164 924.934 33.5083C925.06 33.6002 925.204 33.6637 925.357 33.6944L925.705 33.8184L925.588 34.2676L921.035 33.0781L921.152 32.6289L921.516 32.6904C921.665 32.7384 921.822 32.7537 921.977 32.7352C922.132 32.7166 922.281 32.6647 922.414 32.5831C922.547 32.5014 922.66 32.3919 922.747 32.2621C922.834 32.1322 922.891 31.9852 922.915 31.8311L923.785 28.502L924.343 28.6465L924.424 28.3369L918.214 26.7139L918.133 27.0244Z" fill="white"/>
<path d="M930.459 35.0906L930.806 35.2185L930.684 35.6658L926.143 34.4324L926.265 33.9842L926.629 34.0506C926.777 34.0998 926.934 34.1165 927.089 34.0994C927.244 34.0823 927.393 34.0318 927.527 33.9515C927.661 33.8711 927.775 33.7628 927.863 33.6339C927.951 33.5051 928.01 33.3587 928.036 33.2049L930.094 25.6365C930.15 25.4908 930.173 25.3348 930.163 25.1793C930.152 25.0237 930.108 24.8723 930.033 24.7354C929.959 24.5985 929.855 24.4794 929.73 24.3863C929.605 24.2932 929.461 24.2283 929.309 24.1961L928.962 24.0691L929.084 23.6218L933.624 24.8562L933.502 25.3044L933.139 25.239C932.991 25.1895 932.834 25.1725 932.679 25.1894C932.524 25.2062 932.375 25.2565 932.241 25.3367C932.107 25.4169 931.992 25.5251 931.904 25.6539C931.816 25.7827 931.757 25.929 931.731 26.0828L929.673 33.6501C929.617 33.7959 929.594 33.9519 929.605 34.1075C929.615 34.2631 929.659 34.4146 929.734 34.5515C929.809 34.6885 929.912 34.8076 930.037 34.9006C930.163 34.9937 930.306 35.0585 930.459 35.0906V35.0906Z" fill="white"/>
<path d="M936.495 37.2861L931.29 35.8183L931.415 35.373L931.778 35.4413C931.926 35.4922 932.082 35.5106 932.237 35.4951C932.393 35.4796 932.543 35.4307 932.677 35.3517C932.811 35.2728 932.927 35.1656 933.016 35.0376C933.105 34.9096 933.165 34.7639 933.193 34.6103L935.319 27.0644C935.376 26.9193 935.4 26.7635 935.391 26.6079C935.382 26.4522 935.34 26.3004 935.266 26.1629C935.193 26.0253 935.09 25.9053 934.966 25.8111C934.842 25.7169 934.699 25.6507 934.547 25.6172L934.201 25.4863L934.327 25.04L939.147 26.3975C941.457 27.0478 942.671 28.5205 942.22 30.1221C942.03 30.6507 941.684 31.1087 941.226 31.4347C940.769 31.7606 940.223 31.9388 939.662 31.9453C940.318 32.2306 940.852 32.7405 941.168 33.3836C941.483 34.0267 941.559 34.761 941.382 35.4551C940.875 37.2568 938.943 37.9755 936.495 37.2861ZM939.69 34.9111C939.798 34.5838 939.834 34.237 939.794 33.8946C939.755 33.5522 939.642 33.2225 939.462 32.9284C939.282 32.6343 939.041 32.3828 938.754 32.1914C938.467 32.0001 938.143 31.8734 937.802 31.8203L935.892 31.2822L934.635 35.748L934.08 35.5917L933.993 35.8994L936.38 36.5722C938.043 37.04 939.261 36.4365 939.69 34.9111V34.9111ZM940.511 29.7578C940.61 29.4585 940.642 29.141 940.604 28.828C940.566 28.5151 940.459 28.2144 940.291 27.9476C940.123 27.6809 939.898 27.4546 939.632 27.2852C939.366 27.1158 939.066 27.0074 938.753 26.9678L936.675 26.3818L936.588 26.6904L937.142 26.8467L936.044 30.7431L937.677 31.2031C937.956 31.3186 938.257 31.3721 938.559 31.3601C938.861 31.348 939.157 31.2706 939.427 31.1333C939.696 30.9959 939.932 30.8018 940.12 30.5644C940.307 30.3269 940.44 30.0517 940.511 29.7577L940.511 29.7578Z" fill="white"/>
<path d="M945.73 39.4246L946.074 39.5584L945.944 40.0037L941.43 38.6873L941.56 38.242L941.922 38.3152C942.069 38.3672 942.225 38.3868 942.381 38.3726C942.536 38.3584 942.686 38.3108 942.821 38.2329C942.956 38.155 943.073 38.0488 943.163 37.9216C943.253 37.7944 943.315 37.6491 943.343 37.4959L945.537 29.9714C945.595 29.8268 945.621 29.6713 945.613 29.5156C945.606 29.3599 945.564 29.2077 945.492 29.0695C945.42 28.9313 945.319 28.8104 945.195 28.7151C945.072 28.6198 944.93 28.5523 944.778 28.5173L944.433 28.3836L944.563 27.9382L949.078 29.2546L948.948 29.7L948.586 29.6277C948.439 29.5755 948.283 29.5558 948.128 29.5699C947.972 29.584 947.822 29.6315 947.687 29.7093C947.552 29.7871 947.435 29.8932 947.345 30.0204C947.255 30.1476 947.193 30.2928 947.164 30.4461L944.971 37.9705C944.913 38.1151 944.887 38.2706 944.894 38.4263C944.902 38.582 944.943 38.7342 945.015 38.8724C945.088 39.0107 945.189 39.1316 945.312 39.2269C945.436 39.3222 945.578 39.3896 945.73 39.4246V39.4246Z" fill="white"/>
<path d="M959.094 32.2576L958.262 35.6804L957.757 35.5281L957.771 34.5974C957.864 34.0343 957.741 33.4566 957.426 32.9806C957.111 32.5046 956.627 32.1657 956.072 32.032L954.587 31.5837L954.494 31.8894L955.046 32.0564L952.581 40.2322C952.522 40.3763 952.494 40.5317 952.5 40.6875C952.507 40.8434 952.546 40.996 952.617 41.1349C952.688 41.2738 952.788 41.3958 952.911 41.4923C953.033 41.5888 953.175 41.6577 953.327 41.6941L953.67 41.8298L953.536 42.2752L949.034 40.9167L949.168 40.4734L949.529 40.5486C949.676 40.6022 949.832 40.6234 949.987 40.6108C950.143 40.5981 950.294 40.5519 950.43 40.4753C950.565 40.3987 950.683 40.2936 950.774 40.1671C950.865 40.0407 950.928 39.896 950.958 39.7429L953.514 31.2595L952.565 30.9744C952.029 30.7792 951.438 30.7945 950.912 31.0171C950.387 31.2398 949.965 31.6534 949.731 32.1746L949.228 32.9587L948.722 32.8064L949.922 29.4929L959.094 32.2576Z" fill="white"/>
<path d="M960.875 44.031L961.217 44.1716L961.079 44.614L956.59 43.2127L956.728 42.7703L957.089 42.8494C957.235 42.9044 957.391 42.9271 957.546 42.9159C957.702 42.9047 957.853 42.86 957.99 42.7847C958.126 42.7094 958.245 42.6054 958.338 42.4798C958.43 42.3543 958.494 42.2101 958.526 42.0574L960.862 34.5759C960.923 34.4324 960.952 34.2774 960.947 34.1215C960.943 33.9657 960.904 33.8127 960.835 33.6731C960.765 33.5335 960.666 33.4107 960.545 33.313C960.423 33.2153 960.282 33.1451 960.131 33.1072L959.79 32.9675L959.927 32.5242L964.417 33.9275L964.278 34.3689L963.917 34.2898C963.772 34.2347 963.615 34.212 963.46 34.223C963.304 34.2341 963.153 34.2788 963.017 34.354C962.88 34.4292 962.761 34.5331 962.669 34.6586C962.576 34.784 962.512 34.9281 962.48 35.0808L960.145 42.5632C960.084 42.7067 960.055 42.8616 960.059 43.0174C960.064 43.1732 960.102 43.3261 960.172 43.4656C960.241 43.6051 960.34 43.7279 960.462 43.8255C960.583 43.9231 960.724 43.9932 960.875 44.031V44.031Z" fill="white"/>
<path d="M963.578 39.5633C963.769 38.8489 964.101 38.1798 964.554 37.5953C965.008 37.0108 965.573 36.5226 966.217 36.1594C966.862 35.7963 967.572 35.5654 968.307 35.4803C969.041 35.3952 969.786 35.4576 970.496 35.6639C971.185 35.9003 971.82 36.2735 972.361 36.7611C972.903 37.2486 973.341 37.8405 973.648 38.5012C973.956 39.162 974.126 39.878 974.15 40.6063C974.175 41.3347 974.051 42.0605 973.788 42.7401C973.597 43.4553 973.265 44.1251 972.811 44.7105C972.358 45.2959 971.793 45.785 971.148 46.1494C970.504 46.5137 969.793 46.7459 969.058 46.8324C968.322 46.9189 967.577 46.858 966.866 46.6532C966.175 46.416 965.54 46.0418 964.998 45.5531C964.456 45.0643 964.018 44.471 963.711 43.8088C963.404 43.1466 963.234 42.4292 963.211 41.6996C963.188 40.9701 963.313 40.2434 963.578 39.5633V39.5633ZM971.873 42.5223C972.915 39.3094 972.07 36.8817 970.075 36.2352C968.263 35.6483 966.341 36.9598 965.432 39.7616C964.391 42.9745 965.236 45.4012 967.23 46.0477C969.042 46.6356 970.965 45.3241 971.873 42.5223V42.5223Z" fill="white"/>
<path d="M982.249 51.8016L977.943 40.5183L975.591 47.3904C975.518 47.5402 975.477 47.7036 975.471 47.87C975.465 48.0364 975.494 48.2023 975.555 48.357C975.617 48.5118 975.71 48.652 975.829 48.7687C975.947 48.8854 976.089 48.9761 976.245 49.0349L976.578 49.1999L976.427 49.6384L972.764 48.3845L972.915 47.9451L973.278 48.0193C973.437 48.0689 973.604 48.0844 973.769 48.0648C973.934 48.0452 974.093 47.9911 974.236 47.9058C974.378 47.8205 974.501 47.706 974.596 47.5699C974.692 47.4338 974.757 47.2791 974.788 47.116L977.39 39.5173L976.604 37.8611L979.056 38.7009L982.496 47.5212L982.304 48.0818L982.478 48.5134L984.525 42.5349C984.598 42.385 984.638 42.2216 984.644 42.0551C984.651 41.8886 984.622 41.7226 984.56 41.5678C984.499 41.4129 984.406 41.2726 984.287 41.1558C984.168 41.039 984.026 40.9483 983.87 40.8894L983.538 40.7253L983.688 40.2859L987.351 41.5408L987.201 41.9792L986.837 41.905C986.679 41.8554 986.511 41.8399 986.346 41.8595C986.181 41.879 986.022 41.9332 985.88 42.0185C985.737 42.1038 985.614 42.2183 985.519 42.3544C985.424 42.4905 985.358 42.6452 985.327 42.8083L982.249 51.8016Z" fill="white"/>
<path d="M991.913 40.9824L991.907 41C991.052 41.2106 990.269 41.6482 989.641 42.2666C989.014 42.8851 988.565 43.6614 988.342 44.5137C987.977 45.3156 987.835 46.2011 987.932 47.0769C988.029 47.9526 988.36 48.7861 988.891 49.4892L988.884 49.5078C988.062 48.9241 987.464 48.0762 987.191 47.1054C986.918 46.1346 986.986 45.0996 987.384 44.1728C987.66 43.2033 988.261 42.3579 989.085 41.7774C989.909 41.1969 990.907 40.9163 991.913 40.9824V40.9824Z" fill="white"/>
<path d="M991.449 49.3582C990.413 48.9852 989.845 48.115 990.12 47.3513C990.141 47.2896 990.174 47.2325 990.216 47.1835C990.259 47.1344 990.311 47.0944 990.37 47.0656C990.428 47.0368 990.491 47.0198 990.556 47.0158C990.621 47.0117 990.686 47.0205 990.748 47.0417C990.826 47.0738 990.895 47.1236 990.951 47.1874C991.006 47.2511 991.045 47.3269 991.066 47.4086C991.087 47.4904 991.088 47.5759 991.07 47.6582C991.051 47.7405 991.014 47.8173 990.96 47.8826L990.785 47.8191C990.625 48.3171 990.886 48.7488 991.482 48.9646C991.67 49.0298 991.869 49.0546 992.066 49.0371C992.264 49.0197 992.455 48.9605 992.628 48.8634C992.801 48.7664 992.951 48.6337 993.069 48.4742C993.187 48.3147 993.269 48.132 993.311 47.9382C993.392 47.7512 993.43 47.5483 993.422 47.3447C993.415 47.141 993.362 46.9415 993.267 46.761C993.173 46.5804 993.039 46.4232 992.876 46.301C992.713 46.1787 992.524 46.0945 992.325 46.0544C992.127 45.9836 991.922 45.9332 991.714 45.904L994.828 43.9822L994.627 43.9099L994.372 44.0662L992.941 43.5496C992.767 43.4559 992.565 43.4307 992.373 43.4787C992.181 43.5268 992.015 43.6447 991.905 43.8093L991.729 44.0232L991.448 43.9216L992.21 42.5818L995.799 43.8757L992.952 45.6355C993.207 45.6978 993.446 45.8137 993.654 45.9755C993.861 46.1374 994.031 46.3414 994.154 46.5742C994.276 46.8069 994.347 47.063 994.363 47.3254C994.379 47.5879 994.339 47.8507 994.245 48.0964C994.152 48.3679 994.003 48.6173 993.81 48.8294C993.616 49.0415 993.381 49.2118 993.119 49.3299C992.857 49.4481 992.574 49.5115 992.287 49.5163C992 49.5212 991.715 49.4674 991.449 49.3582V49.3582Z" fill="white"/>
<path d="M993.655 51.2253L993.662 51.2078C994.519 51.0076 995.307 50.5795 995.942 49.9689C996.577 49.3582 997.035 48.5874 997.268 47.738C997.643 46.9409 997.795 46.0575 997.71 45.1809C997.624 44.3043 997.303 43.4671 996.781 42.7576L996.788 42.741C997.603 43.3344 998.189 44.189 998.45 45.1625C998.711 46.1359 998.63 47.1694 998.221 48.0906C997.933 49.0564 997.323 49.8943 996.492 50.4648C995.661 51.0352 994.66 51.3036 993.655 51.2253V51.2253Z" fill="white"/>
</g>
<defs>
<clipPath id="clip0">
<rect width="1182" height="467" fill="white"/>
</clipPath>
</defs>
</svg>

