<svg width="195" height="215" viewBox="0 0 195 215" fill="none" xmlns="http://www.w3.org/2000/svg">
<g filter="url(#filter0_d)">
<path d="M154.944 76.4756C169.354 84.7988 176.558 88.9604 178.922 94.4228C180.895 98.9834 180.895 104.157 178.922 108.717C176.558 114.18 169.354 118.341 154.944 126.665L58.0951 182.607C43.6769 190.935 36.4678 195.099 30.5536 194.416C25.6158 193.845 21.1338 191.258 18.1699 187.268C14.62 182.488 14.62 174.163 14.62 157.512L14.62 45.6279C14.62 28.9773 14.62 20.652 18.1699 15.8726C21.1338 11.8822 25.6158 9.29514 30.5536 8.72452C36.4678 8.04108 43.6769 12.2052 58.0951 20.5335L154.944 76.4756Z" fill="white"/>
<path d="M154.194 77.7745C161.425 81.9512 166.755 85.0321 170.583 87.7457C174.416 90.4636 176.53 92.6727 177.545 95.0184C179.354 99.199 179.354 103.941 177.545 108.122C176.53 110.468 174.416 112.677 170.583 115.395C166.755 118.108 161.425 121.189 154.194 125.366L57.3448 181.308C50.1097 185.487 44.7741 188.567 40.5089 190.528C36.2367 192.491 33.2654 193.219 30.7258 192.926C26.1995 192.403 22.091 190.031 19.3741 186.373C17.8497 184.321 16.9937 181.384 16.5572 176.702C16.1215 172.029 16.12 165.868 16.12 157.512L16.12 45.6279C16.12 37.2725 16.1215 31.1117 16.5572 26.4378C16.9937 21.7562 17.8497 18.8193 19.3741 16.767C22.091 13.1092 26.1995 10.7377 30.7258 10.2146C33.2654 9.92113 36.2367 10.6488 40.5089 12.6125C44.7741 14.573 50.1097 17.6532 57.3448 21.8323L154.194 77.7745Z" stroke="#1B1B1B" stroke-width="3"/>
</g>
<defs>
<filter id="filter0_d" x="0.620117" y="0.652039" width="193.781" height="213.836" filterUnits="userSpaceOnUse" color-interpolation-filters="sRGB">
<feFlood flood-opacity="0" result="BackgroundImageFix"/>
<feColorMatrix in="SourceAlpha" type="matrix" values="0 0 0 0 0 0 0 0 0 0 0 0 0 0 0 0 0 0 127 0" result="hardAlpha"/>
<feOffset dy="6"/>
<feGaussianBlur stdDeviation="7"/>
<feComposite in2="hardAlpha" operator="out"/>
<feColorMatrix type="matrix" values="0 0 0 0 0 0 0 0 0 0 0 0 0 0 0 0 0 0 0.19 0"/>
<feBlend mode="normal" in2="BackgroundImageFix" result="effect1_dropShadow"/>
<feBlend mode="normal" in="SourceGraphic" in2="effect1_dropShadow" result="shape"/>
</filter>
</defs>
</svg>
